<svg width="50" height="41" viewBox="0 0 50 41" fill="none" xmlns="http://www.w3.org/2000/svg">
<path d="M14.091 40C14.9947 40 15.7273 39.2674 15.7273 38.3636C15.7273 37.4599 14.9947 36.7273 14.091 36.7273C13.1872 36.7273 12.4546 37.4599 12.4546 38.3636C12.4546 39.2674 13.1872 40 14.091 40Z" stroke="#324119" stroke-width="2" stroke-linecap="round" stroke-linejoin="round"/>
<path d="M36.9999 40C37.9036 40 38.6363 39.2674 38.6363 38.3636C38.6363 37.4599 37.9036 36.7273 36.9999 36.7273C36.0962 36.7273 35.3635 37.4599 35.3635 38.3636C35.3635 39.2674 36.0962 40 36.9999 40Z" stroke="#324119" stroke-width="2" stroke-linecap="round" stroke-linejoin="round"/>
<path d="M1 4H7.54545L12.4545 31.8182H38.6364" stroke="#324119" stroke-width="2" stroke-linecap="round" stroke-linejoin="round"/>
<path d="M12.4546 25.2727H37.9655C38.1547 25.2729 38.3382 25.2074 38.4845 25.0875C38.6309 24.9676 38.7312 24.8007 38.7684 24.6151L41.7138 9.88784C41.7376 9.76908 41.7347 9.64653 41.7054 9.52903C41.676 9.41153 41.6209 9.30201 41.5441 9.20838C41.4673 9.11474 41.3707 9.03932 41.2612 8.98756C41.1517 8.93581 41.0321 8.909 40.911 8.90909H9.18188" stroke="#324119" stroke-width="2" stroke-linecap="round" stroke-linejoin="round"/>
<circle cx="41.5" cy="8.5" r="8.5" fill="#324119"/>
<path d="M41.7051 5.00781C42.61 5.00781 43.2643 5.38053 43.668 6.12598C43.9805 6.70215 44.1367 7.49154 44.1367 8.49414C44.1367 9.44466 43.9951 10.2308 43.7119 10.8525C43.3018 11.7445 42.6312 12.1904 41.7002 12.1904C40.8604 12.1904 40.2354 11.8258 39.8252 11.0967C39.4834 10.488 39.3125 9.6709 39.3125 8.64551C39.3125 7.85124 39.415 7.16927 39.6201 6.59961C40.0042 5.53841 40.6992 5.00781 41.7051 5.00781ZM41.6953 11.3896C42.151 11.3896 42.514 11.1878 42.7842 10.7842C43.0544 10.3805 43.1895 9.62858 43.1895 8.52832C43.1895 7.73405 43.0918 7.08138 42.8965 6.57031C42.7012 6.05599 42.3219 5.79883 41.7588 5.79883C41.2412 5.79883 40.862 6.04297 40.6211 6.53125C40.3835 7.01628 40.2646 7.73242 40.2646 8.67969C40.2646 9.39258 40.3411 9.96549 40.4941 10.3984C40.7285 11.0592 41.1289 11.3896 41.6953 11.3896Z" fill="white"/>
</svg>
