<svg width="21" height="23" viewBox="0 0 21 23" fill="none" xmlns="http://www.w3.org/2000/svg">
<path d="M14.8748 2.74379C16.0342 2.74739 17.1451 3.22708 17.9648 4.07811C18.7846 4.92914 19.2467 6.08236 19.2502 7.28589V16.3691C19.2467 17.5727 18.7846 18.7259 17.9648 19.5769C17.1451 20.4279 16.0342 20.9076 14.8748 20.9112H6.12516C4.96582 20.9076 3.85495 20.4279 3.03517 19.5769C2.21539 18.7259 1.75331 17.5727 1.74984 16.3691V7.28589C1.75331 6.08236 2.21539 4.92914 3.03517 4.07811C3.85495 3.22708 4.96582 2.74739 6.12516 2.74379H14.8748ZM14.8748 0.927246H6.12516C2.75625 0.927246 0 3.78856 0 7.28589V16.3691C0 19.8664 2.75625 22.7278 6.12516 22.7278H14.8748C18.2437 22.7278 21 19.8664 21 16.3691V7.28589C21 3.78856 18.2437 0.927246 14.8748 0.927246Z" fill="#324119"/>
<path d="M16.1873 7.28727C15.9277 7.28727 15.6739 7.20731 15.4581 7.05751C15.2422 6.9077 15.074 6.69477 14.9747 6.44565C14.8753 6.19652 14.8493 5.9224 14.9 5.65793C14.9506 5.39347 15.0756 5.15054 15.2592 4.95987C15.4427 4.7692 15.6766 4.63935 15.9312 4.58674C16.1858 4.53414 16.4497 4.56114 16.6895 4.66433C16.9294 4.76752 17.1343 4.94226 17.2786 5.16647C17.4228 5.39067 17.4998 5.65426 17.4998 5.92391C17.5001 6.10306 17.4664 6.28052 17.4006 6.4461C17.3348 6.61169 17.2381 6.76214 17.1162 6.88881C16.9942 7.01549 16.8494 7.1159 16.69 7.18428C16.5306 7.25266 16.3597 7.28766 16.1873 7.28727Z" fill="#324119"/>
<path d="M10.5 8.19399C11.1923 8.19399 11.869 8.4071 12.4446 8.80636C13.0202 9.20562 13.4688 9.77311 13.7337 10.4371C13.9986 11.101 14.068 11.8316 13.9329 12.5364C13.7978 13.2413 13.4645 13.8887 12.975 14.3969C12.4855 14.9051 11.8618 15.2511 11.1828 15.3913C10.5039 15.5315 9.80012 15.4596 9.16055 15.1846C8.52098 14.9095 7.97433 14.4438 7.58973 13.8463C7.20513 13.2487 6.99985 12.5462 6.99985 11.8276C7.00084 10.8642 7.36992 9.94058 8.02611 9.25938C8.68231 8.57817 9.57201 8.19502 10.5 8.19399ZM10.5 6.37744C9.46165 6.37744 8.44662 6.69709 7.58326 7.29595C6.7199 7.89482 6.04699 8.74602 5.64963 9.7419C5.25227 10.7378 5.14831 11.8336 5.35088 12.8908C5.55345 13.9481 6.05347 14.9192 6.78769 15.6814C7.52192 16.4436 8.45738 16.9627 9.47578 17.173C10.4942 17.3833 11.5498 17.2753 12.5091 16.8628C13.4684 16.4503 14.2883 15.7518 14.8652 14.8555C15.4421 13.9592 15.75 12.9055 15.75 11.8276C15.75 10.3821 15.1969 8.99585 14.2123 7.97375C13.2277 6.95165 11.8924 6.37744 10.5 6.37744Z" fill="#324119"/>
</svg>
