<svg width="26" height="21" viewBox="0 0 26 21" fill="none" xmlns="http://www.w3.org/2000/svg">
<path d="M26 2.48828C25.0247 2.91613 23.9928 3.19801 22.9369 3.325C24.0466 2.66896 24.8811 1.62672 25.2839 0.393758C24.2348 1.01314 23.0888 1.44773 21.8953 1.67891C21.3926 1.14709 20.7882 0.724017 20.1185 0.4354C19.4489 0.146782 18.7282 -0.00134932 18.0001 9.26098e-06C15.0524 9.26098e-06 12.6669 2.37344 12.6669 5.29921C12.6648 5.70618 12.711 6.11193 12.8045 6.5078C10.6907 6.40776 8.62091 5.86336 6.72749 4.90943C4.83407 3.9555 3.15872 2.61306 1.80862 0.967975C1.33498 1.77413 1.08449 2.69393 1.08333 3.63125C1.08333 5.46874 2.03288 7.09296 3.46667 8.04452C2.61719 8.02416 1.78511 7.79717 1.04108 7.3828V7.44842C1.04108 10.0187 2.88275 12.157 5.32025 12.6437C4.86188 12.7671 4.38954 12.8296 3.91517 12.8297C3.57856 12.8303 3.24273 12.7973 2.91254 12.7312C3.59017 14.8367 5.56238 16.3679 7.89858 16.4117C6.00025 17.8887 3.66958 18.6871 1.27292 18.6812C0.847501 18.6806 0.422481 18.655 0 18.6046C2.43814 20.1765 5.27228 21.0079 8.16508 20.9999C17.9888 20.9999 23.3556 12.9226 23.3556 5.91718C23.3556 5.68749 23.3496 5.4578 23.3388 5.23359C24.3805 4.4855 25.2816 3.55584 26 2.48828Z" fill="#324119"/>
</svg>
